# xmcd CD database file
# Copyright (C) 1996 Ti Kan
#
# Track frame offsets:
#  200
#  17787
#  28485
#  42412
#  53025
#  67357
#  86825
#  100250
#  111420
#  125602
#  139157
#  154355
#  170762
#  185520
#  202290
#
# Disc length: 2888 seconds
#
# Revision: 1
# Processed by: cddbd v1.4b41PL1 Copyright (c) Steve Scherf et al.
# Submitted via: CDWizzard Release:4.12
#
DISCID=f20b460f
DTITLE=Shines, Johnny and Snooky Pryor - Back To The Country
DYEAR=1900
DGENRE=
TTITLE0=Trouble In Mind
TTITLE1=Corrine Corrina
TTITLE2=Cool Driver
TTITLE3=They're Red Hot
TTITLE4=Crossroads
TTITLE5=Lost A Good Woman
TTITLE6=Evening Sun
TTITLE7=Peace In Hell
TTITLE8=Send Your Man to War
TTITLE9=Come On In My Kitchen
TTITLE10=Blues Come To Texas
TTITLE11=Moon Is Rising
TTITLE12=Hey Bobba Re Bop
TTITLE13=Terraplane
TTITLE14=I Make You Happy
EXTD=
EXTT0=
EXTT1=
EXTT2=
EXTT3=
EXTT4=
EXTT5=
EXTT6=
EXTT7=
EXTT8=
EXTT9=
EXTT10=
EXTT11=
EXTT12=
EXTT13=
EXTT14=
PLAYORDER=
